<svg xmlns="http://www.w3.org/2000/svg" viewBox="0 0 339.94 112.07"><defs><style>.cls-1{fill:#fff;}</style></defs><title>Asset 7</title><g id="Layer_2" data-name="Layer 2"><g id="Food_Ninja" data-name="Food Ninja"><path class="cls-1" d="M0,21.05H35.89c.23,1.25.4,2.41.51,3.49a27.66,27.66,0,0,1,.17,3.06,39.46,39.46,0,0,1-.68,6.72H15.05V44.69H31.47a34.61,34.61,0,0,1,.76,6.64,34.77,34.77,0,0,1-.76,6.72H15.05V82a46.16,46.16,0,0,1-7.48.76A45.39,45.39,0,0,1,0,82Z"/><path class="cls-1" d="M36.14,60.43A30.53,30.53,0,0,1,37.54,51a20.22,20.22,0,0,1,4.17-7.36,18.27,18.27,0,0,1,6.85-4.72A24.86,24.86,0,0,1,58,37.21a25.1,25.1,0,0,1,9.52,1.66,18.27,18.27,0,0,1,6.85,4.72A20.22,20.22,0,0,1,78.54,51a30.53,30.53,0,0,1,1.4,9.48,29.44,29.44,0,0,1-1.4,9.31A19.9,19.9,0,0,1,74.37,77a18.1,18.1,0,0,1-6.85,4.64A25.93,25.93,0,0,1,58,83.22a25.68,25.68,0,0,1-9.44-1.61A18.1,18.1,0,0,1,41.71,77a19.9,19.9,0,0,1-4.17-7.23A29.44,29.44,0,0,1,36.14,60.43Zm29.26,0q0-5.44-1.83-8.34A6.16,6.16,0,0,0,58,49.2a6,6,0,0,0-5.53,2.89Q50.69,55,50.68,60.43t1.79,8.25A6,6,0,0,0,58,71.57a6.14,6.14,0,0,0,5.57-2.89Q65.4,65.79,65.4,60.43Z"/><path class="cls-1" d="M82.11,60.43A30.53,30.53,0,0,1,83.51,51a20.22,20.22,0,0,1,4.17-7.36,18.35,18.35,0,0,1,6.85-4.72,27.9,27.9,0,0,1,19,0,18.27,18.27,0,0,1,6.85,4.72A20.22,20.22,0,0,1,124.51,51a30.53,30.53,0,0,1,1.4,9.48,29.44,29.44,0,0,1-1.4,9.31A19.9,19.9,0,0,1,120.34,77a18.1,18.1,0,0,1-6.85,4.64,28.71,28.71,0,0,1-19,0A18.17,18.17,0,0,1,87.68,77a19.9,19.9,0,0,1-4.17-7.23A29.44,29.44,0,0,1,82.11,60.43Zm29.26,0q0-5.44-1.83-8.34A6.16,6.16,0,0,0,104,49.2a6,6,0,0,0-5.53,2.89Q96.66,55,96.65,60.43t1.79,8.25A6,6,0,0,0,104,71.57a6.14,6.14,0,0,0,5.57-2.89Q111.37,65.79,111.37,60.43Z"/><path class="cls-1" d="M145.16,37.21a37.7,37.7,0,0,1,11.78,1.62,21.34,21.34,0,0,1,8,4.55,17.39,17.39,0,0,1,4.59,7.1A28.26,28.26,0,0,1,171,59.75a29.78,29.78,0,0,1-1.48,9.69,18.54,18.54,0,0,1-4.68,7.41,21.24,21.24,0,0,1-8.25,4.71,39.35,39.35,0,0,1-12.21,1.66c-2.78,0-5.26-.09-7.44-.29s-4.46-.47-6.85-.81V38.4q3.59-.42,7.57-.81C140.34,37.34,142.83,37.21,145.16,37.21Zm-.68,33.85a5.89,5.89,0,0,1,.89.09,13.23,13.23,0,0,0,1.66.08q4.75,0,7.1-2.68c1.56-1.78,2.34-4.72,2.34-8.8,0-3.63-.76-6.28-2.3-8a8.39,8.39,0,0,0-6.54-2.51c-.69,0-1.31,0-1.88.08s-1,.12-1.27.17Z"/><path class="cls-1" d="M175.72,27.64c1.11-.2,2.13-.35,3-.46a24.4,24.4,0,0,1,2.66-.15,21.91,21.91,0,0,1,2.86.19q1.49.2,2.55.42l17.65,29.83V27.64c1.32-.2,2.51-.35,3.58-.46s2-.15,2.89-.15a26.59,26.59,0,0,1,2.74.15c1,.11,2,.26,3,.46L216.66,82a18.5,18.5,0,0,1-2.21.45,20.22,20.22,0,0,1-3.12.23,19.61,19.61,0,0,1-3.42-.27c-1-.17-1.75-.31-2.21-.41L188,52.3V82a31.05,31.05,0,0,1-6.09.68,32.13,32.13,0,0,1-6.16-.68Z"/><path class="cls-1" d="M236,82.13c-1.32.2-2.51.35-3.58.45a26.18,26.18,0,0,1-5.78,0c-1.07-.1-2.23-.25-3.5-.45V42.86a25.87,25.87,0,0,1,3.31-.53,31.4,31.4,0,0,1,3.16-.16c1,0,2,0,3.12.16a23.47,23.47,0,0,1,3.27.53Z"/><path class="cls-1" d="M257.84,42.1a39.76,39.76,0,0,1,6.69.57,15.21,15.21,0,0,1,6.05,2.4A13.36,13.36,0,0,1,275,50.32a20.36,20.36,0,0,1,1.71,9V82.13a30.06,30.06,0,0,1-3.58.49c-1.06.08-2,.12-2.81.12s-1.83,0-2.9-.12a30.2,30.2,0,0,1-3.57-.49V60.74c0-2.69-.51-4.61-1.53-5.78a5.8,5.8,0,0,0-4.64-1.75,11.57,11.57,0,0,0-1.79.15,3.57,3.57,0,0,0-1.18.31V82.13a29.92,29.92,0,0,1-3.57.49q-1.6.12-2.82.12c-.86,0-1.82,0-2.89-.12a30.06,30.06,0,0,1-3.58-.49V44.76c1.78-.61,3.94-1.2,6.47-1.79A43.68,43.68,0,0,1,257.84,42.1Z"/><path class="cls-1" d="M282.7,53.59a18.22,18.22,0,0,1-.5-2.85c-.08-.89-.11-1.74-.11-2.55s0-1.65.11-2.51a17.89,17.89,0,0,1,.5-2.82h20.47v24.2a19.62,19.62,0,0,1-1.26,7.42,12.6,12.6,0,0,1-3.5,5,14.1,14.1,0,0,1-5.25,2.78,23.29,23.29,0,0,1-6.51.88,27,27,0,0,1-3.23-.27,23.18,23.18,0,0,1-4.38-1c-.05-.4-.09-.8-.11-1.18s0-.77,0-1.18a21.22,21.22,0,0,1,.38-3.95,33.78,33.78,0,0,1,1.07-4.11l.91.19c.41.07.85.14,1.33.19l1.37.15a9.74,9.74,0,0,0,1,.08,14.4,14.4,0,0,0,1.79-.12,3.71,3.71,0,0,0,1.75-.68,4,4,0,0,0,1.29-1.72,8.21,8.21,0,0,0,.5-3.19V53.59Z"/><path class="cls-1" d="M306.3,69.34a11,11,0,0,1,1.6-6.16A12.11,12.11,0,0,1,312,59.3a17.37,17.37,0,0,1,5.55-2,32.25,32.25,0,0,1,5.94-.57h4.64a4.06,4.06,0,0,0-.76-2.28A4.56,4.56,0,0,0,325.63,53a8.65,8.65,0,0,0-2.36-.69,19.25,19.25,0,0,0-2.66-.19,25.42,25.42,0,0,0-4.26.42,31.83,31.83,0,0,0-5,1.33c-.45-.86-.85-1.64-1.17-2.36a10.93,10.93,0,0,1-.77-2.16,18.54,18.54,0,0,1-.38-2.29c-.07-.78-.11-1.68-.11-2.7a49,49,0,0,1,7.27-1.83,40,40,0,0,1,6.5-.6,24.87,24.87,0,0,1,7.16.95,14.2,14.2,0,0,1,5.44,2.93,13,13,0,0,1,3.46,5.06,20,20,0,0,1,1.22,7.34v22.3q-2.9.84-7,1.67a43.33,43.33,0,0,1-8.68.84,34.26,34.26,0,0,1-7.27-.72A16.33,16.33,0,0,1,311.32,80a11.13,11.13,0,0,1-3.69-4.23A14.19,14.19,0,0,1,306.3,69.34Zm18,4.26a18.48,18.48,0,0,0,2-.15,16.67,16.67,0,0,0,1.9-.3V64.78H323.8a8.34,8.34,0,0,0-4.49,1.14,3.58,3.58,0,0,0-1.82,3.19,3.83,3.83,0,0,0,.68,2.4,4.33,4.33,0,0,0,1.72,1.33,7.63,7.63,0,0,0,2.2.61A17.35,17.35,0,0,0,324.26,73.6Z"/><path class="cls-1" d="M235.23,13l13.54,5.78-13.4,7.06-6,12.89-6-12.89L209.64,19.4l12.66-6.07L228.51,0Zm-4.64,3.69a3.14,3.14,0,1,0,1.52,4.17A3.13,3.13,0,0,0,230.59,16.66Z"/><path class="cls-1" d="M60,111.76c-.47-.79-1-1.63-1.57-2.53s-1.17-1.81-1.79-2.73-1.25-1.8-1.89-2.66-1.25-1.64-1.83-2.33v10.25H50.4V97.45h2.13c.55.57,1.14,1.26,1.77,2s1.27,1.61,1.91,2.47,1.26,1.71,1.86,2.57,1.13,1.66,1.6,2.4V97.45h2.58v14.31Z"/><path class="cls-1" d="M87.71,112.07a6.85,6.85,0,0,1-2.52-.43,4.59,4.59,0,0,1-1.74-1.18,4.85,4.85,0,0,1-1-1.8,7.46,7.46,0,0,1-.33-2.27V97.45h2.62v8.69a5.38,5.38,0,0,0,.22,1.66,2.86,2.86,0,0,0,.62,1.13,2.39,2.39,0,0,0,1,.64,3.36,3.36,0,0,0,1.22.2,3.47,3.47,0,0,0,1.24-.2,2.5,2.5,0,0,0,1-.64,2.86,2.86,0,0,0,.62-1.13,5.38,5.38,0,0,0,.22-1.66V97.45h2.62v8.94a7.16,7.16,0,0,1-.34,2.27,5,5,0,0,1-1,1.8,4.55,4.55,0,0,1-1.77,1.18A6.92,6.92,0,0,1,87.71,112.07Z"/><path class="cls-1" d="M123.21,97.45V99.7h-4.4v12.06h-2.62V99.7h-4.4V97.45Z"/><path class="cls-1" d="M145.65,97.3a8.25,8.25,0,0,1,4.74,1.14,4.28,4.28,0,0,1-1.23,7.41c.27.32.56.7.89,1.16s.67.94,1,1.47.67,1.08,1,1.63.59,1.11.84,1.65H150c-.26-.5-.54-1-.85-1.5s-.61-1-.91-1.47-.62-.92-.92-1.34-.59-.79-.85-1.12l-.5,0h-1.65v5.41h-2.6V97.65a13.85,13.85,0,0,1,2-.28C144.45,97.33,145.09,97.3,145.65,97.3Zm.19,2.25q-.83,0-1.53.06v4.63h1.14a11.8,11.8,0,0,0,1.67-.1,3.52,3.52,0,0,0,1.21-.38,1.75,1.75,0,0,0,.73-.72,2.33,2.33,0,0,0,.25-1.15,2.26,2.26,0,0,0-.25-1.12,1.82,1.82,0,0,0-.71-.72,3.23,3.23,0,0,0-1.11-.38A7.53,7.53,0,0,0,145.84,99.55Z"/><path class="cls-1" d="M171.44,97.45h2.61v14.31h-2.61Z"/><path class="cls-1" d="M204,97.45V99.7h-4.4v12.06H197V99.7h-4.4V97.45Z"/><path class="cls-1" d="M222.47,97.45h2.6v14.31h-2.6Z"/><path class="cls-1" d="M258.32,104.59a8.94,8.94,0,0,1-.55,3.24,6.76,6.76,0,0,1-1.49,2.35,6.2,6.2,0,0,1-2.2,1.41,7.45,7.45,0,0,1-2.68.48,7.6,7.6,0,0,1-2.7-.48,6.33,6.33,0,0,1-2.21-1.41,6.91,6.91,0,0,1-1.49-2.35,9.62,9.62,0,0,1,0-6.47A6.73,6.73,0,0,1,246.52,99a6.28,6.28,0,0,1,2.21-1.43,7.79,7.79,0,0,1,5.33,0,6,6,0,0,1,2.2,1.43,6.83,6.83,0,0,1,1.5,2.34A8.71,8.71,0,0,1,258.32,104.59Zm-11.17,0a7.5,7.5,0,0,0,.28,2.14,4.92,4.92,0,0,0,.84,1.63,3.85,3.85,0,0,0,1.33,1,4.11,4.11,0,0,0,1.78.37,4,4,0,0,0,1.75-.37,3.79,3.79,0,0,0,1.34-1,4.73,4.73,0,0,0,.83-1.63,8,8,0,0,0,0-4.28,4.73,4.73,0,0,0-.83-1.63,3.91,3.91,0,0,0-1.34-1,4,4,0,0,0-1.75-.37,4.11,4.11,0,0,0-1.78.37,3.88,3.88,0,0,0-1.33,1,5.13,5.13,0,0,0-.84,1.63A7.47,7.47,0,0,0,247.15,104.59Z"/><path class="cls-1" d="M287.33,111.76c-.47-.79-1-1.63-1.57-2.53s-1.18-1.81-1.8-2.73-1.25-1.8-1.89-2.66-1.25-1.64-1.82-2.33v10.25h-2.56V97.45h2.12c.55.57,1.14,1.26,1.78,2s1.27,1.61,1.91,2.47,1.26,1.71,1.86,2.57,1.13,1.66,1.6,2.4V97.45h2.58v14.31Z"/></g></g></svg>