<svg xmlns="http://www.w3.org/2000/svg" viewBox="0 0 339.94 111.76"><defs><style>.cls-1{fill:#fff;}</style></defs><title>nav-logo</title><g id="Layer_2" data-name="Layer 2"><g id="Food_Ninja" data-name="Food Ninja"><path class="cls-1" d="M51.35,97.6,50,99.11c-.52.55-1.06,1.12-1.63,1.7l-1.69,1.71-1.58,1.56a17.73,17.73,0,0,1,1.82,1.48c.64.58,1.27,1.21,1.88,1.88s1.19,1.34,1.73,2a16.64,16.64,0,0,1,1.35,2H49.55a18.84,18.84,0,0,0-1.38-1.89,23.75,23.75,0,0,0-1.65-1.82c-.58-.58-1.17-1.12-1.76-1.61A13.67,13.67,0,0,0,43,104.88v6.58H41.09V97.6H43v6.12c.47-.44,1-.94,1.54-1.49l1.66-1.67c.55-.56,1.06-1.1,1.55-1.61s.9-1,1.23-1.35Z"/><path class="cls-1" d="M83.67,97.6h1.94v13.86H83.67Z"/><path class="cls-1" d="M128.31,97.6v1.68H124v12.18H122V99.28h-4.36V97.6Z"/><path class="cls-1" d="M165.77,111.76a7.12,7.12,0,0,1-2.66-.48,5.67,5.67,0,0,1-2.06-1.4,6.37,6.37,0,0,1-1.33-2.27,9.46,9.46,0,0,1-.47-3.09,8.48,8.48,0,0,1,.53-3.09,6.62,6.62,0,0,1,1.43-2.27,6,6,0,0,1,2.1-1.4,6.82,6.82,0,0,1,2.56-.48,9.12,9.12,0,0,1,1.55.12,8.93,8.93,0,0,1,1.2.28,4.67,4.67,0,0,1,.83.32,3,3,0,0,1,.44.24l-.56,1.6a2.76,2.76,0,0,0-.52-.26,7.47,7.47,0,0,0-.77-.28,6.16,6.16,0,0,0-.94-.23,5.89,5.89,0,0,0-1-.09,4.86,4.86,0,0,0-2,.38,4,4,0,0,0-1.5,1.1,5,5,0,0,0-1,1.75,7.49,7.49,0,0,0-.33,2.31,8.42,8.42,0,0,0,.29,2.26,4.87,4.87,0,0,0,.87,1.75,4,4,0,0,0,1.45,1.13,4.93,4.93,0,0,0,2,.4,7.7,7.7,0,0,0,2.22-.28,10.89,10.89,0,0,0,1.32-.5l.5,1.6a3.2,3.2,0,0,1-.5.25,8,8,0,0,1-.9.29q-.54.14-1.26.24A12.53,12.53,0,0,1,165.77,111.76Z"/><path class="cls-1" d="M210.93,97.6h1.94v13.86h-1.94v-6.4h-6.78v6.4h-1.94V97.6h1.94v5.78h6.78Z"/><path class="cls-1" d="M246.31,111.46V97.6h8.46v1.66h-6.52v4.12h5.8V105h-5.8v4.8h7v1.66Z"/><path class="cls-1" d="M297.23,111.46c-.29-.5-.63-1-1-1.66s-.79-1.25-1.23-1.91-.9-1.33-1.37-2-.94-1.34-1.41-2-.92-1.23-1.36-1.79-.85-1.06-1.22-1.48v10.82h-1.9V97.6h1.54c.63.66,1.3,1.44,2,2.33s1.42,1.8,2.12,2.74,1.36,1.86,2,2.77,1.14,1.71,1.57,2.42V97.6h1.9v13.86Z"/><path class="cls-1" d="M0,21.05H35.89c.23,1.25.4,2.41.51,3.49a27.66,27.66,0,0,1,.17,3.06,39.46,39.46,0,0,1-.68,6.72H15.05V44.69H31.47a34.61,34.61,0,0,1,.76,6.64,34.77,34.77,0,0,1-.76,6.72H15.05V82a46.16,46.16,0,0,1-7.48.76A45.39,45.39,0,0,1,0,82Z"/><path class="cls-1" d="M36.14,60.43A30.53,30.53,0,0,1,37.54,51a20.22,20.22,0,0,1,4.17-7.36,18.27,18.27,0,0,1,6.85-4.72A24.86,24.86,0,0,1,58,37.21a25.1,25.1,0,0,1,9.52,1.66,18.27,18.27,0,0,1,6.85,4.72A20.22,20.22,0,0,1,78.54,51a30.53,30.53,0,0,1,1.4,9.48,29.44,29.44,0,0,1-1.4,9.31A19.9,19.9,0,0,1,74.37,77a18.1,18.1,0,0,1-6.85,4.64A25.93,25.93,0,0,1,58,83.22a25.68,25.68,0,0,1-9.44-1.61A18.1,18.1,0,0,1,41.71,77a19.9,19.9,0,0,1-4.17-7.23A29.44,29.44,0,0,1,36.14,60.43Zm29.26,0q0-5.44-1.83-8.34A6.16,6.16,0,0,0,58,49.2a6,6,0,0,0-5.53,2.89Q50.69,55,50.68,60.43t1.79,8.25A6,6,0,0,0,58,71.57a6.14,6.14,0,0,0,5.57-2.89Q65.4,65.79,65.4,60.43Z"/><path class="cls-1" d="M82.11,60.43A30.53,30.53,0,0,1,83.51,51a20.22,20.22,0,0,1,4.17-7.36,18.35,18.35,0,0,1,6.85-4.72,27.9,27.9,0,0,1,19,0,18.27,18.27,0,0,1,6.85,4.72A20.22,20.22,0,0,1,124.51,51a30.53,30.53,0,0,1,1.4,9.48,29.44,29.44,0,0,1-1.4,9.31A19.9,19.9,0,0,1,120.34,77a18.1,18.1,0,0,1-6.85,4.64,28.71,28.71,0,0,1-19,0A18.17,18.17,0,0,1,87.68,77a19.9,19.9,0,0,1-4.17-7.23A29.44,29.44,0,0,1,82.11,60.43Zm29.26,0q0-5.44-1.83-8.34A6.16,6.16,0,0,0,104,49.2a6,6,0,0,0-5.53,2.89Q96.66,55,96.65,60.43t1.79,8.25A6,6,0,0,0,104,71.57a6.14,6.14,0,0,0,5.57-2.89Q111.37,65.79,111.37,60.43Z"/><path class="cls-1" d="M145.16,37.21a37.7,37.7,0,0,1,11.78,1.62,21.34,21.34,0,0,1,8,4.55,17.39,17.39,0,0,1,4.59,7.1A28.26,28.26,0,0,1,171,59.75a29.78,29.78,0,0,1-1.48,9.69,18.54,18.54,0,0,1-4.68,7.41,21.24,21.24,0,0,1-8.25,4.71,39.35,39.35,0,0,1-12.21,1.66c-2.78,0-5.26-.09-7.44-.29s-4.46-.47-6.85-.81V38.4q3.59-.42,7.57-.81C140.34,37.34,142.83,37.21,145.16,37.21Zm-.68,33.85a5.89,5.89,0,0,1,.89.09,13.23,13.23,0,0,0,1.66.08q4.75,0,7.1-2.68c1.56-1.78,2.34-4.72,2.34-8.8,0-3.63-.76-6.28-2.3-8a8.39,8.39,0,0,0-6.54-2.51c-.69,0-1.31,0-1.88.08s-1,.12-1.27.17Z"/><path class="cls-1" d="M175.72,27.64c1.11-.2,2.13-.35,3-.46a24.4,24.4,0,0,1,2.66-.15,21.91,21.91,0,0,1,2.86.19q1.49.2,2.55.42l17.65,29.83V27.64c1.32-.2,2.51-.35,3.58-.46s2-.15,2.89-.15a26.59,26.59,0,0,1,2.74.15c1,.11,2,.26,3,.46L216.66,82a18.5,18.5,0,0,1-2.21.45,20.22,20.22,0,0,1-3.12.23,19.61,19.61,0,0,1-3.42-.27c-1-.17-1.75-.31-2.21-.41L188,52.3V82a31.05,31.05,0,0,1-6.09.68,32.13,32.13,0,0,1-6.16-.68Z"/><path class="cls-1" d="M236,82.13c-1.32.2-2.51.35-3.58.45a26.18,26.18,0,0,1-5.78,0c-1.07-.1-2.23-.25-3.5-.45V42.86a25.87,25.87,0,0,1,3.31-.53,31.4,31.4,0,0,1,3.16-.16c1,0,2,0,3.12.16a23.47,23.47,0,0,1,3.27.53Z"/><path class="cls-1" d="M257.84,42.1a39.76,39.76,0,0,1,6.69.57,15.21,15.21,0,0,1,6.05,2.4A13.36,13.36,0,0,1,275,50.32a20.36,20.36,0,0,1,1.71,9V82.13a30.06,30.06,0,0,1-3.58.49c-1.06.08-2,.12-2.81.12s-1.83,0-2.9-.12a30.2,30.2,0,0,1-3.57-.49V60.74c0-2.69-.51-4.61-1.53-5.78a5.8,5.8,0,0,0-4.64-1.75,11.57,11.57,0,0,0-1.79.15,3.57,3.57,0,0,0-1.18.31V82.13a29.92,29.92,0,0,1-3.57.49q-1.6.12-2.82.12c-.86,0-1.82,0-2.89-.12a30.06,30.06,0,0,1-3.58-.49V44.76c1.78-.61,3.94-1.2,6.47-1.79A43.68,43.68,0,0,1,257.84,42.1Z"/><path class="cls-1" d="M282.7,53.59a18.22,18.22,0,0,1-.5-2.85c-.08-.89-.11-1.74-.11-2.55s0-1.65.11-2.51a17.89,17.89,0,0,1,.5-2.82h20.47v24.2a19.62,19.62,0,0,1-1.26,7.42,12.6,12.6,0,0,1-3.5,5,14.1,14.1,0,0,1-5.25,2.78,23.29,23.29,0,0,1-6.51.88,27,27,0,0,1-3.23-.27,23.18,23.18,0,0,1-4.38-1c-.05-.4-.09-.8-.11-1.18s0-.77,0-1.18a21.22,21.22,0,0,1,.38-3.95,33.78,33.78,0,0,1,1.07-4.11l.91.19c.41.07.85.14,1.33.19l1.37.15a9.74,9.74,0,0,0,1,.08,14.4,14.4,0,0,0,1.79-.12,3.71,3.71,0,0,0,1.75-.68,4,4,0,0,0,1.29-1.72,8.21,8.21,0,0,0,.5-3.19V53.59Z"/><path class="cls-1" d="M306.3,69.34a11,11,0,0,1,1.6-6.16A12.11,12.11,0,0,1,312,59.3a17.37,17.37,0,0,1,5.55-2,32.25,32.25,0,0,1,5.94-.57h4.64a4.06,4.06,0,0,0-.76-2.28A4.56,4.56,0,0,0,325.63,53a8.65,8.65,0,0,0-2.36-.69,19.25,19.25,0,0,0-2.66-.19,25.42,25.42,0,0,0-4.26.42,31.83,31.83,0,0,0-5,1.33c-.45-.86-.85-1.64-1.17-2.36a10.93,10.93,0,0,1-.77-2.16,18.54,18.54,0,0,1-.38-2.29c-.07-.78-.11-1.68-.11-2.7a49,49,0,0,1,7.27-1.83,40,40,0,0,1,6.5-.6,24.87,24.87,0,0,1,7.16.95,14.2,14.2,0,0,1,5.44,2.93,13,13,0,0,1,3.46,5.06,20,20,0,0,1,1.22,7.34v22.3q-2.9.84-7,1.67a43.33,43.33,0,0,1-8.68.84,34.26,34.26,0,0,1-7.27-.72A16.33,16.33,0,0,1,311.32,80a11.13,11.13,0,0,1-3.69-4.23A14.19,14.19,0,0,1,306.3,69.34Zm18,4.26a18.48,18.48,0,0,0,2-.15,16.67,16.67,0,0,0,1.9-.3V64.78H323.8a8.34,8.34,0,0,0-4.49,1.14,3.58,3.58,0,0,0-1.82,3.19,3.83,3.83,0,0,0,.68,2.4,4.33,4.33,0,0,0,1.72,1.33,7.63,7.63,0,0,0,2.2.61A17.35,17.35,0,0,0,324.26,73.6Z"/><path class="cls-1" d="M235.23,13l13.54,5.78-13.4,7.06-6,12.89-6-12.89L209.64,19.4l12.66-6.07L228.51,0Zm-4.64,3.69a3.14,3.14,0,1,0,1.52,4.17A3.13,3.13,0,0,0,230.59,16.66Z"/></g></g></svg>